<svg width="265" height="131" viewBox="0 0 265 131" fill="none" xmlns="http://www.w3.org/2000/svg">
<path d="M140.134 83.1123H131.922L131.976 78.871H140.134C142.944 78.871 145.285 78.2857 147.158 77.1151C149.031 75.9264 150.436 74.2695 151.372 72.1444C152.327 70.0012 152.804 67.4979 152.804 64.6343V62.23C152.804 59.9788 152.534 57.9797 151.993 56.2328C151.453 54.4678 150.661 52.982 149.616 51.7754C148.572 50.5507 147.293 49.6232 145.78 48.9929C144.285 48.3626 142.565 48.0474 140.62 48.0474H131.759V43.7791H140.62C143.196 43.7791 145.546 44.2113 147.671 45.0758C149.796 45.9222 151.624 47.1559 153.155 48.7768C154.704 50.3796 155.893 52.3247 156.721 54.6119C157.549 56.8811 157.964 59.4385 157.964 62.2841V64.6343C157.964 67.4799 157.549 70.0463 156.721 72.3335C155.893 74.6027 154.695 76.5388 153.128 78.1416C151.579 79.7445 149.706 80.9782 147.509 81.8426C145.33 82.6891 142.871 83.1123 140.134 83.1123ZM134.704 43.7791V83.1123H129.49V43.7791H134.704Z" fill="#2EB9FF"/>
<path d="M169.175 43.7791L178.63 58.8532L188.085 43.7791H194.163L181.736 63.2566L194.46 83.1123H188.328L178.63 67.741L168.932 83.1123H162.799L175.523 63.2566L163.096 43.7791H169.175ZM224.338 78.871V83.1123H204.672V78.871H224.338ZM205.698 43.7791V83.1123H200.485V43.7791H205.698Z" fill="#2E39A9"/>
<path d="M244.87 47.264L231.849 83.1123H226.527L241.52 43.7791H244.951L244.87 47.264ZM255.783 83.1123L242.735 47.264L242.654 43.7791H246.085L261.132 83.1123H255.783ZM255.108 68.5514V72.8197H233.01V68.5514H255.108Z" fill="#4A6DFF"/>
<path d="M87.9828 57.7389C89.4506 59.2107 89.4506 61.5939 87.9828 63.0657L61.2972 89.8026C59.8333 91.2704 57.454 91.2743 55.9861 89.8104C55.9822 89.8065 55.9822 89.8065 55.9783 89.8026L39.1849 72.9776C37.717 71.5058 37.717 69.1225 39.1849 67.6507L65.8704 40.9139C67.3343 39.4461 69.7136 39.4421 71.1815 40.906C71.1854 40.91 71.1854 40.91 71.1894 40.9139L87.9828 57.7389Z" fill="#4A6DFF"/>
<path d="M67.5081 57.7389C68.976 59.2107 68.976 61.5939 67.5081 63.0657L40.8226 89.8026C39.3587 91.2704 36.9794 91.2743 35.5115 89.8104C35.5076 89.8065 35.5076 89.8065 35.5036 89.8026L18.7103 72.9776C17.2424 71.5058 17.2424 69.1225 18.7103 67.6507L45.3958 40.9139C46.8597 39.4461 49.239 39.4421 50.7069 40.906C50.7108 40.91 50.7108 40.91 50.7148 40.9139L67.5081 57.7389Z" fill="#2EB9FF"/>
<path d="M111.986 97.248L56.9928 129L2 97.248V33.752L56.9928 2L111.986 33.752V97.248Z" stroke="#2E39A9" stroke-width="3.09126" stroke-miterlimit="10"/>
<path d="M105.428 94.0166L56.9572 122L8.48291 94.0166V38.0453L56.9572 10.0615L105.428 38.0453V94.0166Z" stroke="#FBFBFD" stroke-width="3.09126" stroke-miterlimit="10"/>
</svg>
